<?xml version="1.0" encoding="UTF-8"?><svg id="Layer_2" xmlns="http://www.w3.org/2000/svg" viewBox="0 0 1114.19 1354.16"><defs><style>.cls-1{fill:#2156a6;}</style></defs><g id="Layer_2-2"><path class="cls-1" d="M878.53,580.81c-47.04-140.72-194.64-439.13-257.16-563.27-11.8-23.38-45.13-23.38-56.86,0-62.59,124.15-210.19,422.56-257.23,563.27-10.16,30.27,25.57,55.22,50.25,35.04,69.2-56.79,145.76-168.4,235.41-168.4s166.15,111.6,235.35,168.4c24.68,20.18,60.41-4.77,50.25-35.04ZM592.94,398.78c-49.49,0-89.58-40.09-89.58-89.51s40.09-89.52,89.58-89.52,89.52,40.09,89.52,89.52-40.09,89.51-89.52,89.51Z"/><path class="cls-1" d="M131.94,743.3L0,1034.65h42.87l32.01-72.84h154.91l32.01,72.84h43.7l-132.36-291.35h-41.2ZM89.51,928.51l62.82-142.96,62.82,142.96h-125.65Z"/><polygon class="cls-1" points="394.56 743.3 352.94 743.3 352.94 1034.65 552.31 1034.65 552.31 998.44 394.56 998.44 394.56 743.3"/><polygon class="cls-1" points="641.79 904.37 787.88 904.37 787.88 868.99 641.79 868.99 641.79 779.51 805.78 779.51 805.78 743.3 600.17 743.3 600.17 1034.65 811.61 1034.65 811.61 998.44 641.79 998.44 641.79 904.37"/><polygon class="cls-1" points="1114.19 1034.65 1004.02 883.96 1106.7 743.3 1061.33 743.3 980.49 855.06 899.01 743.3 851.56 743.3 954.35 885.33 844.9 1034.65 892.77 1034.65 978.98 914.55 1066.32 1034.65 1114.19 1034.65"/><polygon class="cls-1" points="163.14 1131.77 152.33 1131.77 152.33 1354.16 293.4 1354.16 293.4 1344.31 163.14 1344.31 163.14 1131.77"/><polygon class="cls-1" points="348.04 1246.14 468.77 1246.14 468.77 1236.29 348.04 1236.29 348.04 1141.62 483.07 1141.62 483.07 1131.77 337.24 1131.77 337.24 1354.16 487.52 1354.16 487.52 1344.31 348.04 1344.31 348.04 1246.14"/><polygon class="cls-1" points="629.37 1340.11 536.13 1131.77 524.05 1131.77 623.81 1354.16 634.3 1354.16 734.06 1131.77 722.62 1131.77 629.37 1340.11"/><polygon class="cls-1" points="961.85 1131.77 950.42 1131.77 866.39 1267.81 782.66 1131.77 770.91 1131.77 860.82 1278.22 860.82 1354.16 871.62 1354.16 871.62 1278.24 961.85 1131.77"/></g></svg>