<?xml version="1.0" encoding="UTF-8"?><svg id="Layer_3" xmlns="http://www.w3.org/2000/svg" viewBox="0 0 574.8 623.15"><defs><style>.cls-1{fill:#2156a6;}</style></defs><g id="Layer_2"><path class="cls-1" d="M573.02,580.81c-47.04-140.72-194.64-439.13-257.16-563.27-11.8-23.38-45.13-23.38-56.86,0C196.42,141.69,48.81,440.1,1.77,580.81c-10.16,30.27,25.57,55.22,50.25,35.04,69.2-56.79,145.76-168.4,235.41-168.4s166.15,111.6,235.35,168.4c24.68,20.18,60.41-4.77,50.25-35.04ZM287.43,398.78c-49.49,0-89.58-40.09-89.58-89.51s40.09-89.52,89.58-89.52,89.52,40.09,89.52,89.52-40.09,89.51-89.52,89.51Z"/></g></svg>