<?xml version="1.0" encoding="UTF-8"?><svg id="Layer_3" xmlns="http://www.w3.org/2000/svg" viewBox="0 0 1114.19 610.87"><defs><style>.cls-1{fill:#fff;}</style></defs><g id="Layer_2"><path class="cls-1" d="M131.94,0L0,291.35h42.87l32.01-72.84h154.91l32.01,72.84h43.7L173.14,0h-41.2ZM89.51,185.21l62.82-142.96,62.82,142.96h-125.65Z"/><polygon class="cls-1" points="394.56 0 352.94 0 352.94 291.35 552.31 291.35 552.31 255.14 394.56 255.14 394.56 0"/><polygon class="cls-1" points="641.79 161.08 787.88 161.08 787.88 125.7 641.79 125.7 641.79 36.21 805.78 36.21 805.78 0 600.17 0 600.17 291.35 811.61 291.35 811.61 255.14 641.79 255.14 641.79 161.08"/><polygon class="cls-1" points="1114.19 291.35 1004.02 140.67 1106.7 0 1061.33 0 980.49 111.76 899.01 0 851.56 0 954.35 142.03 844.9 291.35 892.77 291.35 978.98 171.25 1066.32 291.35 1114.19 291.35"/><polygon class="cls-1" points="163.14 388.47 152.33 388.47 152.33 610.87 293.4 610.87 293.4 601.02 163.14 601.02 163.14 388.47"/><polygon class="cls-1" points="348.04 502.84 468.77 502.84 468.77 493 348.04 493 348.04 398.32 483.07 398.32 483.07 388.47 337.24 388.47 337.24 610.87 487.52 610.87 487.52 601.02 348.04 601.02 348.04 502.84"/><polygon class="cls-1" points="629.37 596.82 536.13 388.47 524.05 388.47 623.81 610.87 634.3 610.87 734.06 388.47 722.62 388.47 629.37 596.82"/><polygon class="cls-1" points="961.85 388.47 950.42 388.47 866.39 524.52 782.66 388.47 770.91 388.47 860.82 534.92 860.82 610.87 871.62 610.87 871.62 534.94 961.85 388.47"/></g></svg>